<mxfile host="app.diagrams.net" modified="2021-05-18T10:08:43.359Z" agent="5.0 (Windows NT 10.0; Win64; x64) AppleWebKit/537.36 (KHTML, like Gecko) Chrome/90.0.4430.212 Safari/537.36" etag="cb0fsUARXgkw0Sir9r88" version="14.6.13" type="github">
  <diagram id="-HxQ1_xSUIL-mlMlBiPt" name="1.1">
    <mxGraphModel dx="868" dy="394" grid="0" gridSize="10" guides="1" tooltips="1" connect="1" arrows="1" fold="1" page="1" pageScale="1" pageWidth="827" pageHeight="1169" math="0" shadow="0">
      <root>
        <mxCell id="0" />
        <mxCell id="1" parent="0" />
        <mxCell id="EBIfttQoLs3U-4yyH2XJ-40" value="" style="rounded=0;whiteSpace=wrap;html=1;shadow=0;" vertex="1" parent="1">
          <mxGeometry x="52" y="173" width="654" height="572" as="geometry" />
        </mxCell>
        <mxCell id="EBIfttQoLs3U-4yyH2XJ-23" style="edgeStyle=orthogonalEdgeStyle;rounded=0;orthogonalLoop=1;jettySize=auto;html=1;exitX=0.5;exitY=1;exitDx=0;exitDy=0;entryX=0;entryY=0.5;entryDx=0;entryDy=0;" edge="1" parent="1" source="EBIfttQoLs3U-4yyH2XJ-8" target="EBIfttQoLs3U-4yyH2XJ-16">
          <mxGeometry relative="1" as="geometry" />
        </mxCell>
        <mxCell id="EBIfttQoLs3U-4yyH2XJ-8" value="" style="rounded=0;whiteSpace=wrap;html=1;" vertex="1" parent="1">
          <mxGeometry x="128" y="203" width="165" height="176" as="geometry" />
        </mxCell>
        <mxCell id="EBIfttQoLs3U-4yyH2XJ-1" value="非结构化数据" style="rounded=0;whiteSpace=wrap;html=1;" vertex="1" parent="1">
          <mxGeometry x="113" y="104" width="97" height="41" as="geometry" />
        </mxCell>
        <mxCell id="EBIfttQoLs3U-4yyH2XJ-18" style="edgeStyle=orthogonalEdgeStyle;rounded=0;orthogonalLoop=1;jettySize=auto;html=1;" edge="1" parent="1" source="EBIfttQoLs3U-4yyH2XJ-2" target="EBIfttQoLs3U-4yyH2XJ-16">
          <mxGeometry relative="1" as="geometry" />
        </mxCell>
        <mxCell id="EBIfttQoLs3U-4yyH2XJ-2" value="第三方数据库" style="shape=datastore;whiteSpace=wrap;html=1;" vertex="1" parent="1">
          <mxGeometry x="591" y="407.5" width="83" height="62" as="geometry" />
        </mxCell>
        <mxCell id="EBIfttQoLs3U-4yyH2XJ-15" style="edgeStyle=orthogonalEdgeStyle;rounded=0;orthogonalLoop=1;jettySize=auto;html=1;exitX=0;exitY=1;exitDx=0;exitDy=0;entryX=0.5;entryY=0;entryDx=0;entryDy=0;" edge="1" parent="1" source="EBIfttQoLs3U-4yyH2XJ-3" target="EBIfttQoLs3U-4yyH2XJ-8">
          <mxGeometry relative="1" as="geometry" />
        </mxCell>
        <mxCell id="EBIfttQoLs3U-4yyH2XJ-3" value="半结构化数据" style="rounded=0;whiteSpace=wrap;html=1;" vertex="1" parent="1">
          <mxGeometry x="210" y="104" width="97" height="41" as="geometry" />
        </mxCell>
        <mxCell id="EBIfttQoLs3U-4yyH2XJ-17" style="edgeStyle=orthogonalEdgeStyle;rounded=0;orthogonalLoop=1;jettySize=auto;html=1;exitX=0.5;exitY=1;exitDx=0;exitDy=0;entryX=0.5;entryY=0;entryDx=0;entryDy=0;" edge="1" parent="1" source="EBIfttQoLs3U-4yyH2XJ-4" target="EBIfttQoLs3U-4yyH2XJ-16">
          <mxGeometry relative="1" as="geometry" />
        </mxCell>
        <mxCell id="EBIfttQoLs3U-4yyH2XJ-4" value="结构化数据" style="rounded=0;whiteSpace=wrap;html=1;" vertex="1" parent="1">
          <mxGeometry x="400" y="104" width="97" height="41" as="geometry" />
        </mxCell>
        <mxCell id="EBIfttQoLs3U-4yyH2XJ-5" value="实体抽取" style="rounded=0;whiteSpace=wrap;html=1;" vertex="1" parent="1">
          <mxGeometry x="164" y="234" width="97" height="41" as="geometry" />
        </mxCell>
        <mxCell id="EBIfttQoLs3U-4yyH2XJ-6" value="关系抽取" style="rounded=0;whiteSpace=wrap;html=1;" vertex="1" parent="1">
          <mxGeometry x="164" y="275" width="97" height="41" as="geometry" />
        </mxCell>
        <mxCell id="EBIfttQoLs3U-4yyH2XJ-7" value="属性抽取" style="rounded=0;whiteSpace=wrap;html=1;" vertex="1" parent="1">
          <mxGeometry x="164" y="316" width="97" height="41" as="geometry" />
        </mxCell>
        <mxCell id="EBIfttQoLs3U-4yyH2XJ-9" value="知识提取" style="text;html=1;strokeColor=none;fillColor=none;align=center;verticalAlign=middle;whiteSpace=wrap;rounded=0;" vertex="1" parent="1">
          <mxGeometry x="182.5" y="210" width="56" height="21" as="geometry" />
        </mxCell>
        <mxCell id="EBIfttQoLs3U-4yyH2XJ-31" style="edgeStyle=orthogonalEdgeStyle;rounded=0;orthogonalLoop=1;jettySize=auto;html=1;exitX=0.5;exitY=1;exitDx=0;exitDy=0;" edge="1" parent="1" source="EBIfttQoLs3U-4yyH2XJ-16" target="EBIfttQoLs3U-4yyH2XJ-26">
          <mxGeometry relative="1" as="geometry" />
        </mxCell>
        <mxCell id="EBIfttQoLs3U-4yyH2XJ-16" value="数据整合" style="rounded=0;whiteSpace=wrap;html=1;" vertex="1" parent="1">
          <mxGeometry x="400" y="418" width="97" height="41" as="geometry" />
        </mxCell>
        <mxCell id="EBIfttQoLs3U-4yyH2XJ-33" style="edgeStyle=orthogonalEdgeStyle;rounded=0;orthogonalLoop=1;jettySize=auto;html=1;exitX=0.5;exitY=1;exitDx=0;exitDy=0;" edge="1" parent="1" source="EBIfttQoLs3U-4yyH2XJ-25" target="EBIfttQoLs3U-4yyH2XJ-27">
          <mxGeometry relative="1" as="geometry" />
        </mxCell>
        <mxCell id="EBIfttQoLs3U-4yyH2XJ-25" value="本体构建" style="rounded=0;whiteSpace=wrap;html=1;" vertex="1" parent="1">
          <mxGeometry x="400" y="589" width="97" height="41" as="geometry" />
        </mxCell>
        <mxCell id="EBIfttQoLs3U-4yyH2XJ-32" style="edgeStyle=orthogonalEdgeStyle;rounded=0;orthogonalLoop=1;jettySize=auto;html=1;exitX=0.5;exitY=1;exitDx=0;exitDy=0;" edge="1" parent="1" source="EBIfttQoLs3U-4yyH2XJ-26" target="EBIfttQoLs3U-4yyH2XJ-25">
          <mxGeometry relative="1" as="geometry" />
        </mxCell>
        <mxCell id="EBIfttQoLs3U-4yyH2XJ-26" value="实体对齐" style="rounded=0;whiteSpace=wrap;html=1;" vertex="1" parent="1">
          <mxGeometry x="400" y="507" width="97" height="41" as="geometry" />
        </mxCell>
        <mxCell id="EBIfttQoLs3U-4yyH2XJ-34" style="edgeStyle=orthogonalEdgeStyle;rounded=0;orthogonalLoop=1;jettySize=auto;html=1;exitX=0;exitY=0.5;exitDx=0;exitDy=0;" edge="1" parent="1" source="EBIfttQoLs3U-4yyH2XJ-27" target="EBIfttQoLs3U-4yyH2XJ-29">
          <mxGeometry relative="1" as="geometry" />
        </mxCell>
        <mxCell id="EBIfttQoLs3U-4yyH2XJ-27" value="质量评估" style="rounded=0;whiteSpace=wrap;html=1;" vertex="1" parent="1">
          <mxGeometry x="400" y="667" width="97" height="41" as="geometry" />
        </mxCell>
        <mxCell id="EBIfttQoLs3U-4yyH2XJ-30" style="edgeStyle=orthogonalEdgeStyle;rounded=0;orthogonalLoop=1;jettySize=auto;html=1;exitX=1;exitY=0.5;exitDx=0;exitDy=0;entryX=0;entryY=0.5;entryDx=0;entryDy=0;" edge="1" parent="1" source="EBIfttQoLs3U-4yyH2XJ-28" target="EBIfttQoLs3U-4yyH2XJ-26">
          <mxGeometry relative="1" as="geometry" />
        </mxCell>
        <mxCell id="EBIfttQoLs3U-4yyH2XJ-28" value="知识推理" style="rounded=0;whiteSpace=wrap;html=1;" vertex="1" parent="1">
          <mxGeometry x="249" y="507" width="97" height="41" as="geometry" />
        </mxCell>
        <mxCell id="EBIfttQoLs3U-4yyH2XJ-39" style="edgeStyle=orthogonalEdgeStyle;rounded=0;orthogonalLoop=1;jettySize=auto;html=1;exitX=0.5;exitY=1;exitDx=0;exitDy=0;" edge="1" parent="1" source="EBIfttQoLs3U-4yyH2XJ-29" target="EBIfttQoLs3U-4yyH2XJ-35">
          <mxGeometry relative="1" as="geometry" />
        </mxCell>
        <mxCell id="EBIfttQoLs3U-4yyH2XJ-29" value="知识更新" style="rounded=0;whiteSpace=wrap;html=1;" vertex="1" parent="1">
          <mxGeometry x="249" y="667" width="97" height="41" as="geometry" />
        </mxCell>
        <mxCell id="EBIfttQoLs3U-4yyH2XJ-38" style="edgeStyle=orthogonalEdgeStyle;rounded=0;orthogonalLoop=1;jettySize=auto;html=1;exitX=1;exitY=0.5;exitDx=0;exitDy=0;" edge="1" parent="1" source="EBIfttQoLs3U-4yyH2XJ-35" target="EBIfttQoLs3U-4yyH2XJ-37">
          <mxGeometry relative="1" as="geometry" />
        </mxCell>
        <mxCell id="EBIfttQoLs3U-4yyH2XJ-35" value="知识图谱" style="shape=datastore;whiteSpace=wrap;html=1;" vertex="1" parent="1">
          <mxGeometry x="256" y="767" width="83" height="62" as="geometry" />
        </mxCell>
        <mxCell id="EBIfttQoLs3U-4yyH2XJ-37" value="知识检索" style="rounded=0;whiteSpace=wrap;html=1;" vertex="1" parent="1">
          <mxGeometry x="400" y="777.5" width="97" height="41" as="geometry" />
        </mxCell>
      </root>
    </mxGraphModel>
  </diagram>
</mxfile>
